<?xml version="1.0" standalone="no"?>
<!DOCTYPE svg PUBLIC "-//W3C//DTD SVG 20010904//EN"
 "http://www.w3.org/TR/2001/REC-SVG-20010904/DTD/svg10.dtd">
<svg version="1.0" xmlns="http://www.w3.org/2000/svg"
 width="700.000000pt" height="700.000000pt" viewBox="0 0 700.000000 700.000000"
 preserveAspectRatio="xMidYMid meet">
<metadata>
Created by potrace 1.14, written by Peter Selinger 2001-2017
</metadata>
<g transform="translate(0.000000,700.000000) scale(0.100000,-0.100000)"
fill="#000000" stroke="none">
<path d="M4795 6586 c-96 -26 -167 -48 -395 -120 -139 -45 -337 -98 -410 -111
-36 -7 -57 -9 -175 -20 -216 -19 -277 -30 -380 -72 -43 -18 -68 -20 -170 -17
-163 4 -220 -3 -254 -31 -42 -36 -93 -153 -177 -402 -89 -266 -137 -372 -200
-442 -60 -66 -153 -111 -304 -146 -218 -51 -307 -83 -365 -135 -34 -31 -97
-40 -281 -41 -185 -1 -259 -12 -293 -43 -39 -36 -91 -162 -132 -321 -41 -160
-95 -295 -142 -357 -37 -49 -96 -188 -111 -264 -19 -93 -83 -293 -112 -354
-31 -64 -56 -94 -165 -200 -132 -129 -179 -195 -179 -253 0 -17 14 -62 31
-101 39 -89 21 -45 204 -506 86 -217 168 -424 183 -460 59 -142 176 -289 368
-460 106 -95 276 -214 559 -390 244 -152 472 -304 495 -330 9 -11 295 -225
335 -251 92 -61 154 -96 223 -128 l73 -33 217 -4 c119 -1 231 -5 247 -8 88
-16 279 -22 340 -11 40 8 123 50 162 83 132 110 586 412 773 515 132 72 261
135 340 167 185 72 238 135 349 418 23 57 95 200 170 337 106 192 169 339 194
450 10 45 14 192 16 585 1 289 4 550 6 580 19 295 40 368 179 610 54 94 94
182 105 232 10 48 8 676 -4 778 -12 112 -33 201 -59 244 -13 23 -60 82 -103
130 -145 165 -156 181 -215 306 -181 383 -201 405 -463 490 -55 17 -138 48
-185 67 -112 46 -176 50 -295 19z"/>
</g>
</svg>
